<svg xmlns="http://www.w3.org/2000/svg" xmlns:osb="http://www.openswatchbook.org/uri/2009/osb" xmlns:svg="http://www.w3.org/2000/svg" id="svg7384" width="16" height="16" version="1.1"><metadata id="metadata90"/><title id="title9167">Gnome Symbolic Icon Theme</title><defs id="defs7386"><linearGradient id="linearGradient7212" osb:paint="solid"><stop id="stop7214" offset="0" style="stop-color:#000;stop-opacity:1"/></linearGradient></defs><g id="layer9" transform="translate(-423.0002,165)" style="display:inline"><path id="rect2989" d="m 423.01759,-157.0299 0,8 8,0 0,-8 -8,0 z m 2,2 4,0 0,4 -4,0 0,-4 z" style="fill:#bebebe;fill-opacity:1;fill-rule:nonzero;stroke:none"/><path id="rect2991" d="m 430.98254,-164.98558 0,7.99988 8,0 0,-7.99988 -8,0 z m 2,2 4,0 0,3.99988 -4,0 0,-3.99988 z" style="fill:#bebebe;fill-opacity:1;fill-rule:nonzero;stroke:none"/><path id="rect2993" d="m 425.75482,-163.00543 2.48136,0 c 0.42066,0 0.75932,0.3566 0.75932,0.79955 l 0,2.39868 c 0,0.4429 -0.33866,0.7995 -0.75932,0.7995 l -2.48136,0 c -0.42066,0 -0.75932,-0.3566 -0.75932,-0.7995 l 0,-2.39868 c 0,-0.44295 0.33866,-0.79955 0.75932,-0.79955 z" style="fill:#bebebe;fill-opacity:1;fill-rule:nonzero;stroke:none"/><path id="rect2997" d="m 433.75087,-155.0076 2.48439,0 c 0.42117,0 0.76025,0.3568 0.76025,0.8 l 0,2.4 c 0,0.4432 -0.33908,0.8 -0.76025,0.8 l -2.48439,0 c -0.42118,0 -0.76025,-0.3568 -0.76025,-0.8 l 0,-2.4 c 0,-0.4432 0.33907,-0.8 0.76025,-0.8 z" style="fill:#bebebe;fill-opacity:1;fill-rule:nonzero;stroke:none"/></g></svg>